# xmcd
#
# Track frame offsets:
# 150
# 17804
# 37581
# 54226
# 69606
# 84686
# 102887
# 117947
# 137635
# 155048
# 173025
# 191652
# 209538
#
# Disc length: 3023 seconds
#
#
# Revision: 0
# Processed by: cddbd v1.5.2PL0 Copyright (c) Steve Scherf et al.
# Submitted via: FreeRIP 2.942 
#
DISCID=ad0bcd0d
DTITLE=Van Zant - My Kind of Country
DYEAR=1900
DGENRE=
TTITLE0=Train
TTITLE1=These Colors Don't Run
TTITLE2=Goes Down Easy
TTITLE3=That Scares Me
TTITLE4=My Kind Of Country
TTITLE5=The Hardest Thing
TTITLE6=It's Only Money
TTITLE7=We Can't Do It Alone
TTITLE8=Friend
TTITLE9=It's All About You
TTITLE10=Headed South
TTITLE11=Guess That's Just The Country
TTITLE12=Big Boss Man
EXTD=
EXTT0=
EXTT1=
EXTT2=
EXTT3=
EXTT4=
EXTT5=
EXTT6=
EXTT7=
EXTT8=
EXTT9=
EXTT10=
EXTT11=
EXTT12=
PLAYORDER=
